<svg preserveAspectRatio="none" width="100%" height="100%" overflow="visible" style="display: block;" viewBox="0 0 65 65" fill="none" xmlns="http://www.w3.org/2000/svg">
<g id="OM Analytix ticker-level impact [Vectorized]" clip-path="url(#clip0_184_1783)">
<path id="Vector" d="M42.6509 42.4512C42.8398 42.4474 43.0112 42.4556 43.1933 42.5113C43.3837 42.5697 43.561 42.6757 43.6487 42.8632C44.1214 43.8739 41.3194 47.3491 40.9553 48.4922C41.0012 48.6948 41.4341 49.4013 41.5709 49.6163C42.6699 51.3442 41.6534 53.4569 39.9886 54.3584C39.0914 54.8443 38.256 54.8432 37.3071 54.5583C35.5875 53.9642 34.571 52.3665 34.8859 50.5496C35.048 49.6314 35.5686 48.8155 36.333 48.2817C37.3412 47.5863 38.3275 47.516 39.4898 47.7336C39.8408 47.2255 40.0639 46.6306 40.3465 46.1402C40.8919 45.1932 41.9541 43.1737 42.6509 42.4512ZM38.936 53.0147C39.3027 52.8956 39.6975 52.6411 40.0094 52.4105C40.7346 50.5226 39.9709 49.0894 37.8332 49.3523C36.85 49.5944 36.2818 50.7255 36.5541 51.7002C36.6922 52.1893 37.0221 52.6018 37.4689 52.8441C37.9413 53.1007 38.4171 53.1051 38.936 53.0147Z" fill="var(--fill-0, #80C4F4)"/>
<path id="Vector_2" d="M38.8136 14.6215C43.7307 14.5542 48.7609 14.6128 53.6857 14.6142L59.2851 14.6082C60.4793 14.6057 62.1156 14.4882 63.275 14.7877C63.6289 14.8792 63.6746 15.497 63.4905 15.7726C63.296 16.0638 63.0845 16.0911 62.7508 16.1743C62.2976 16.2185 60.7801 16.1743 60.2616 16.1736L55.0286 16.1716C49.8782 16.1706 44.723 16.1696 39.5726 16.179C39.3489 16.1541 38.6345 16.1938 38.4512 16.0659C37.7103 15.5488 38.1016 14.8188 38.8136 14.6215Z" fill="var(--fill-0, #80C4F4)"/>
<path id="Vector_3" d="M38.6753 19.5622C40.1171 19.5083 41.891 19.5557 43.3538 19.5556L52.5951 19.5536L57.4629 19.5502C58.3189 19.55 59.4888 19.4798 60.3095 19.6407C61.2635 19.8279 60.92 20.728 60.2584 21.1296C59.8566 21.2394 39.4083 21.3121 38.6047 21.1042C38.4125 21.0545 38.2303 20.9041 38.1416 20.7262C38.0568 20.5561 38.0763 20.3284 38.1292 20.1514C38.2245 19.8327 38.3893 19.7126 38.6753 19.5622Z" fill="var(--fill-0, #80C4F4)"/>
<path id="Vector_4" d="M39.7997 9.61797C41.9731 9.57042 44.2159 9.6386 46.401 9.60781C47.8437 9.62044 49.2447 9.56763 50.6898 9.64057C51.3879 9.6758 52.3298 10.0641 51.609 10.8927C51.2458 11.3102 50.7362 11.2819 50.2258 11.2802L42.716 11.2818C41.3887 11.2852 39.9987 11.3506 38.688 11.1962C38.2946 11.1499 37.9642 10.8332 38.0812 10.4041C38.2144 9.91561 38.2877 9.90507 38.7134 9.65104C39.0616 9.62571 39.448 9.62559 39.7997 9.61797Z" fill="var(--fill-0, #80C4F4)"/>
<path id="Vector_5" d="M33.1073 56.391C34.4913 56.3721 43.6928 56.236 44.2751 56.5586C44.4074 56.6318 44.4956 56.763 44.5333 56.9079C44.5911 57.1308 44.5584 57.3804 44.4397 57.5784C44.2968 57.8169 44.0749 57.8794 43.8196 57.9424C41.8086 58.035 39.4146 57.9207 37.3764 57.9653C36.5725 57.9829 33.2233 58.0128 32.6681 57.8618C32.0801 57.4064 32.2457 56.5228 33.1073 56.391Z" fill="var(--fill-0, #80C4F4)"/>
<path id="Vector_6" d="M38.7143 24.5053C39.7482 24.4677 46.4353 24.36 46.9529 24.5908C47.1633 24.6846 47.3178 24.8013 47.3974 25.0268C47.4791 25.2582 47.4256 25.607 47.3043 25.8166C47.1962 26.0032 47.0161 26.0447 46.8223 26.1009C45.2608 26.1611 43.581 26.0816 41.9942 26.1078C40.9673 26.1249 39.7196 26.1518 38.7001 26.0763C38.5216 26.0446 38.2743 25.9131 38.2031 25.7447C37.9179 25.0699 38.1785 24.7904 38.7143 24.5053Z" fill="var(--fill-0, #80C4F4)"/>
<path id="Vector_7" d="M33.7894 24.5141C34.3857 24.4394 35.6782 24.4193 36.2443 24.5823C36.9613 24.7886 37.1315 25.7404 36.2751 26.0738C35.7632 26.1631 34.4096 26.2087 33.9289 26.0979C32.9507 25.8727 32.9154 25.0164 33.7894 24.5141Z" fill="var(--fill-0, #80C4F4)"/>
<path id="Vector_8" d="M33.7328 19.5626C34.4777 19.5467 35.2412 19.5056 35.9857 19.563C36.5857 19.6092 37.0366 20.0521 36.7736 20.6673C36.6902 20.8621 36.355 21.0519 36.1719 21.1702C36.0097 21.1983 35.7469 21.2009 35.5666 21.2035C34.7575 21.2147 32.9404 21.468 33.2322 20.1101C33.2881 19.8499 33.5166 19.693 33.7328 19.5626Z" fill="var(--fill-0, #80C4F4)"/>
<path id="Vector_9" d="M34.5674 9.61422C35.342 9.58871 35.7515 9.61594 36.5071 9.77545C37.3863 10.6086 36.5904 11.2124 35.6367 11.2774C34.9649 11.2899 33.8767 11.4055 33.3293 10.9607C32.9961 10.69 33.1069 10.2974 33.3662 10.0223C33.7568 9.60781 34.041 9.62755 34.5674 9.61422Z" fill="var(--fill-0, #80C4F4)"/>
<path id="Vector_10" d="M33.8273 14.618C34.596 14.5971 37.4307 14.2566 36.7826 15.72C36.6632 15.9894 36.4421 16.0526 36.189 16.1488C35.5521 16.2391 34.2622 16.2809 33.6748 16.0842C32.8167 15.7968 33.0687 14.924 33.8273 14.618Z" fill="var(--fill-0, #80C4F4)"/>
<path id="Vector_11" d="M14.8104 2.39509C16.8037 2.92567 18.979 3.83457 20.9605 4.5332L26.3531 6.44605C26.9455 6.66148 29.3292 7.43799 29.6058 7.83599C29.8426 8.81842 29.7058 12.045 29.7018 13.2102C29.6939 15.4334 29.8759 18.2686 29.4369 20.3849C28.1614 26.5331 23.0893 31.2185 18.079 34.5744C17.0123 35.2909 15.7925 35.8377 14.7127 36.5222C13.967 36.1344 12.9576 35.4503 12.214 34.9818C7.29276 31.8814 2.5383 27.6963 0.619222 22.0335C0.428262 21.4701 0.212248 20.1367 0 19.7342V7.74262C0.948721 7.21735 2.05901 6.8787 3.08419 6.50305C4.92273 5.82935 6.78107 5.14948 8.64303 4.54532C10.6121 3.90637 12.8323 2.89202 14.8104 2.39509ZM1.64989 8.77849L1.64899 15.6689C1.64811 16.685 1.56855 18.2596 1.69112 19.2396C2.48249 25.566 7.92638 30.276 12.9939 33.5157C13.4892 33.8323 14.31 34.4751 14.8236 34.6931C15.9817 33.8253 17.3573 33.1273 18.5314 32.2447C22.7536 29.0708 27.2395 24.7475 27.9021 19.2242C28.0555 17.9458 28.0144 16.5812 28.0154 15.2925L27.9961 8.79684C27.1279 8.26109 23.8296 7.31155 22.7071 6.8867C20.6096 6.09286 18.3621 5.2694 16.2281 4.56077C16.0127 4.48922 14.9713 4.09152 14.8523 4.05978C12.0884 5.11137 9.21147 5.98703 6.44605 7.06494C4.89209 7.6707 3.16783 8.06806 1.64989 8.77849Z" fill="var(--fill-0, #80C4F4)"/>
<path id="Vector_12" d="M14.0434 9.35791C14.9043 9.33296 15.8771 9.26294 16.6921 9.59467C17.1476 9.78015 17.5364 10.0959 17.7224 10.5593C17.8094 10.7758 17.8714 11.0193 17.8826 11.253C17.9392 12.4375 17.4545 19.2131 17.0613 20.1169C16.797 20.7247 16.2871 21.1087 15.6837 21.3406C14.6209 21.6289 13.0765 21.4132 12.6356 20.2426C12.3184 19.4003 12.3382 18.3875 12.2508 17.49L11.7408 12.1283C11.5838 10.3266 12.2316 9.51704 14.0434 9.35791ZM15.5633 19.6058C15.6373 18.7705 15.7143 17.5406 15.7841 16.7211C15.8822 15.5704 16.3387 12.0006 16.1773 11.1165C15.8424 10.7841 14.3248 10.9177 13.8177 10.9349C13.6009 11.0234 13.4623 11.0537 13.3527 11.2577C13.1737 12.1689 13.5772 13.7036 13.6553 14.6802C13.7851 16.3038 13.8486 18.0824 14.1904 19.6657C14.2749 20.0572 15.2827 19.7905 15.5633 19.6058Z" fill="var(--fill-0, #80C4F4)"/>
<path id="Vector_13" d="M14.525 23.1099C15.9532 22.9461 17.2448 23.9681 17.414 25.3956C17.5832 26.8231 16.5662 28.1187 15.1394 28.2933C13.7048 28.4689 12.4007 27.4452 12.2306 26.01C12.0605 24.5748 13.0892 23.2746 14.525 23.1099ZM14.11 26.3885C14.3303 26.6136 14.6468 26.7165 14.9574 26.6641C15.1987 26.6233 15.4154 26.4921 15.5633 26.2971C15.7052 26.1101 15.7738 25.8776 15.7562 25.6434C15.7409 25.4413 15.6621 25.2491 15.5311 25.0944C15.2965 24.8174 14.9259 24.6961 14.573 24.7808C14.1549 24.881 13.8542 25.2467 13.8364 25.6762C13.8255 25.9412 13.9245 26.1989 14.11 26.3885Z" fill="var(--fill-0, #80C4F4)"/>
<path id="Vector_14" d="M65 54.4402C64.7315 54.5761 64.4522 54.7289 64.1494 54.7656C63.3489 54.8629 55.7597 54.8552 55.158 54.6678C54.8427 54.5696 54.8313 53.7193 54.8196 53.4483C54.7006 50.8316 53.9726 48.2788 52.6935 45.9928C50.6649 42.3194 47.0219 39.5222 42.9993 38.3661C38.888 37.2121 34.4868 37.7368 30.762 39.825C26.6088 42.165 23.688 46.2057 22.7685 50.8832C22.5214 52.1115 22.5839 53.1624 22.411 54.3775C22.4065 54.4096 22.3402 54.5586 22.2881 54.5745C21.2504 54.8749 19.6413 54.9122 18.607 54.6569C17.8216 54.4631 18.1411 52.2786 18.1882 51.6928C18.4222 48.7829 19.1325 45.9195 20.2572 43.2253C22.5178 37.7194 26.9187 33.3684 32.4501 31.1707C37.57 29.0862 44.4871 29.2146 49.6109 31.3153C50.6095 31.7248 52.2521 32.5031 53.1494 33.0357C58.1142 35.9977 61.8627 40.63 63.7241 46.1034C64.0561 47.0667 64.3202 47.9367 64.5328 48.9367C64.6833 49.6436 64.7271 50.7412 65 51.3692V54.4402ZM56.3683 53.0896C56.8373 53.07 57.247 53.0602 57.7161 53.0677L63.4677 53.067C63.3097 52.566 63.312 52.0384 63.2401 51.5194C62.8794 48.9181 62.3191 46.0407 60.9402 43.7712L60.8057 43.7115C60.1461 44.2815 58.5796 45.0399 57.8034 45.4887C56.9248 45.9966 55.9034 46.6448 55.0057 47.0984C55.7551 48.6741 56.4443 51.3472 56.3683 53.0896ZM50.1962 40.4381C52.109 42.1019 53.1164 43.3705 54.3478 45.5831C54.6055 45.4415 55.8211 44.8242 56.0108 44.6616C57.5413 43.7387 58.6129 43.1034 60.2187 42.3049C58.6484 39.872 56.9413 37.9459 54.7033 36.1068C54.4543 35.9022 53.6683 35.2085 53.3861 35.139C52.7799 36.1433 50.8414 39.7497 50.1962 40.4381ZM49.0393 39.4935C49.3737 38.8941 49.728 38.282 50.019 37.6622C50.5711 36.722 51.4121 35.0529 52.0561 34.2654C51.2703 33.9439 50.4952 33.4386 49.7073 33.1049C47.768 32.2837 44.5727 31.401 42.4475 31.332C42.4406 32.4693 42.4017 35.48 42.2324 36.5103C43.6978 36.9216 45.1903 37.2921 46.5477 37.9876C47.4207 38.4347 48.2116 38.9831 49.0393 39.4935ZM23.5915 44.5669C23.2102 44.306 22.3314 43.7155 21.9087 43.5563C21.319 45.1224 20.752 46.5644 20.4085 48.2171C20.0717 49.8379 19.9559 51.4386 19.7733 53.0823C20.0567 53.0738 20.5762 53.1094 20.7829 53.0034C20.9229 52.78 20.8741 52.8185 20.842 52.4965C21.2019 50.1481 22.0028 46.405 23.5915 44.5669ZM29.4173 34.5829C26.7394 36.3521 24.1559 39.259 22.6207 42.0854C23.257 42.4835 23.9996 42.7597 24.57 43.1249C25.3865 41.794 27.1591 40.211 28.4523 39.3158C29.3401 38.7012 30.3944 38.1991 31.3232 37.6742C30.8977 37.1827 29.6257 34.6341 29.4173 34.5829ZM32.4843 36.463L32.7251 37.2092C34.4874 36.5574 36.3815 36.2059 38.2557 36.1223C38.8267 36.0968 39.4573 36.1794 40.031 36.191C40.1272 36.193 40.5585 36.2475 40.5462 36.0859C40.4402 34.7033 40.8613 32.6921 40.6933 31.3766C40.4939 31.248 40.2038 31.3066 39.9556 31.3304C37.49 31.3807 32.8401 32.3046 30.8622 33.7608C31.3286 34.6434 32.0445 35.554 32.4843 36.463Z" fill="var(--fill-0, #80C4F4)"/>
</g>
<defs>
<clipPath id="clip0_184_1783">
<rect width="65" height="65" fill="white"/>
</clipPath>
</defs>
</svg>
