<svg preserveAspectRatio="none" width="100%" height="100%" overflow="visible" style="display: block;" viewBox="0 0 65 65" fill="none" xmlns="http://www.w3.org/2000/svg">
<g id="OM Analytix risk channels icon [Vectorized]">
<path id="Vector" d="M15.5971 38.5941C16.3566 38.5633 16.7822 39.1316 16.8062 39.8489C16.8803 42.0589 16.8909 44.324 16.8474 46.5373C16.7963 49.1409 16.9685 51.8993 16.7822 54.4817C18.4701 55.4981 20.1317 56.5575 21.7654 57.659C24.891 55.7548 27.7589 59.6327 25.2166 61.9917C24.2216 62.9767 22.3922 62.8761 21.4652 61.8539C20.8673 61.1946 20.5397 60.254 20.5742 59.3689C19.02 58.1115 17.19 57.1686 15.5308 56.0548C14.7825 55.5525 14.7503 55.2628 14.7467 54.3571C14.7277 49.4809 14.7272 44.6016 14.7393 39.7253C14.741 39.0639 15.0186 38.8141 15.5971 38.5941ZM23.5189 60.6379C23.9223 60.5774 24.2044 60.2069 24.1552 59.8019C24.1062 59.3969 23.7437 59.1045 23.3375 59.1422C23.0643 59.1676 22.8266 59.3393 22.7167 59.5907C22.6067 59.842 22.6421 60.1331 22.8088 60.3509C22.9757 60.5686 23.2476 60.6786 23.5189 60.6379Z" fill="var(--fill-0, #80C4F4)"/>
<path id="Vector_2" d="M54.2047 12.2733C54.5566 12.2095 55.1514 12.2703 55.49 12.3687C56.157 12.5639 56.7175 13.0188 57.0458 13.6312C58.7775 16.8003 53.9791 19.7667 52.0606 16.0151C51.537 16.0536 50.8672 16.0537 50.3419 16.0355C47.0288 15.9204 43.5118 16.2012 40.2241 16.0155C39.5922 17.0364 39.0284 17.9241 38.3431 18.9166C37.7277 20.164 36.3478 22.3041 35.3676 20.0007C35.797 18.9725 38.4675 14.6426 39.3211 14.0131C40.4858 13.9049 42.6615 13.9716 43.9234 13.9728C46.6004 13.9756 49.3289 13.9472 52.0013 13.9869C52.6143 12.919 52.9129 12.4737 54.2047 12.2733ZM54.8474 15.7139C55.7705 15.0368 55.2315 14.1084 54.4688 14.2133C53.478 14.8342 53.6939 15.6658 54.8474 15.7139Z" fill="var(--fill-0, #80C4F4)"/>
<path id="Vector_3" d="M8.81474 38.5927C9.21616 38.569 9.83125 38.9133 9.89263 39.2915C10.1094 40.6279 10.029 42.2781 10.0291 43.6216L10.0287 49.6891L10.0282 53.0274C10.0288 53.6419 10.0644 54.6641 9.95649 55.2233C10.7764 55.7475 11.5573 56.4724 11.6846 57.4874C11.902 59.2217 10.7388 60.4692 9.06572 60.6573C6.1645 60.7582 4.91059 56.9947 7.88176 55.2407C8.07479 52.9422 7.69266 39.9294 8.06997 39.1304C8.21425 38.8248 8.51779 38.7045 8.81474 38.5927ZM9.04573 58.6464C9.45141 58.5885 9.73661 58.2172 9.68792 57.8103C9.63923 57.4033 9.27456 57.1097 8.86666 57.1491C8.59435 57.1753 8.35758 57.347 8.24802 57.5977C8.13839 57.8483 8.17312 58.1387 8.33873 58.3564C8.50434 58.5741 8.77487 58.6852 9.04573 58.6464Z" fill="var(--fill-0, #80C4F4)"/>
<path id="Vector_4" d="M0 31.0398C0.684043 29.4021 1.54923 28.1107 2.39891 26.5717C2.93103 25.6078 3.46903 24.6957 4.02587 23.7479L9.56154 14.1977C11.0559 11.6231 12.4735 8.96879 14.0121 6.42364C14.8977 4.95867 15.4837 3.32318 17.1843 2.67222C18.2882 2.24969 19.4737 2.21414 20.5655 2.67608C21.2513 2.97282 21.8484 3.44223 22.2986 4.03851C22.5748 4.40463 23.072 5.30659 23.3212 5.73722C23.919 6.75683 24.5055 7.78292 25.0807 8.81543C26.8914 12.0703 28.9422 15.2553 30.6905 18.5519C31.2188 19.5482 32.0437 20.5605 32.4624 21.602C32.5211 21.75 32.5735 21.9005 32.6195 22.053C36.9547 21.6333 39.8705 21.8441 43.6705 24.1284C50.4924 28.229 53.0912 36.9752 49.739 44.158C49.3603 44.9695 48.665 45.86 48.3752 46.6487C48.8782 47.0812 49.3633 47.534 49.8294 48.0059C50.8719 49.062 50.5292 49.175 52.059 48.9279C53.5948 48.6797 54.8921 50.4834 55.8506 51.4228C56.9072 52.4674 58.0331 53.4789 58.9505 54.6495C59.1678 54.9268 59.3315 55.5774 59.3517 55.9291C59.4389 57.453 57.8715 58.4756 57.0034 59.4831C53.7876 63.2156 52.0529 60.6865 49.5334 58.0742C48.1324 56.6172 46.1182 55.4744 47.1244 53.0347C46.2892 52.0727 45.3317 51.4397 44.5805 50.3559C44.1186 50.7088 43.5829 50.9748 43.0822 51.2679C40.2093 52.9499 36.5996 53.4982 33.3054 53.0531C29.207 52.5133 25.4931 50.3611 22.9872 47.0735C20.6451 43.9933 19.5778 40.3309 19.8065 36.4672C19.8119 36.3765 19.8458 36.1745 19.7078 36.1663C18.8021 36.1102 17.8088 36.1782 16.8975 36.1779L8.84146 36.1695C7.96453 36.17 7.02698 36.146 6.14847 36.1715C4.11729 36.2306 2.29974 36.1761 0.897209 34.4819C0.424748 33.9112 0.343746 33.2118 0 32.6793V31.0398ZM49.456 50.4397C48.7364 49.8247 46.3439 47.577 45.992 46.8378C45.9527 46.3279 47.0346 44.8117 47.3354 44.2959C49.8518 39.9801 49.7851 34.3498 46.998 30.1245C44.3052 26.0421 40.1347 23.8478 35.1956 23.8365C31.3774 24.0188 27.9591 25.4334 25.3727 28.2796C22.9174 30.9948 21.6427 34.575 21.8297 38.2309C22.3062 47.9294 32.7667 54.169 41.4361 49.8611C42.3041 49.3985 43.4936 48.5107 44.2408 48.127C45.1664 47.6518 47.8217 50.8235 48.4244 51.4936C48.9107 51.0724 49.0554 50.8322 49.456 50.4397ZM14.0601 34.118C16.0853 34.1235 18.1106 34.116 20.1358 34.0957C20.2919 32.3477 21.8239 29.5291 22.8347 28.1073C24.7737 25.3796 27.5666 23.6829 30.6434 22.4984C30.3353 22.097 29.9898 21.3392 29.7175 20.859L27.8117 17.5618C26.1428 14.6319 24.4526 11.714 22.7412 8.80852C22.2159 7.89998 21.1444 5.81528 20.4787 5.06511C20.151 4.69657 19.7008 4.45934 19.2115 4.39737C18.9591 4.36338 18.7014 4.38017 18.4486 4.4014C17.8577 4.51098 17.2955 4.92689 16.9757 5.42251C16.1046 6.77289 15.3557 8.24072 14.5603 9.62184L9.40266 18.5331L4.39123 27.2247C3.75008 28.3509 3.0093 29.4268 2.43577 30.5873C2.16965 31.1257 1.93433 31.6575 2.07253 32.266C2.2761 33.1625 2.94562 33.9958 3.90603 34.0709C5.15543 34.1685 6.40694 34.1247 7.65413 34.1205L14.0601 34.118ZM53.9356 59.3979C54.3858 59.3137 54.7651 58.959 54.9928 58.5849C55.369 57.9666 57.2486 56.6705 57.3022 56.0347C57.1496 55.5222 56.4418 54.7178 56.0261 54.4041C55.2861 53.8457 52.9196 51.0376 52.2592 50.7922C51.5733 51.148 48.3754 53.9358 48.9778 54.5721C49.6662 55.2992 53.2653 59.2301 53.8832 59.385L53.9356 59.3979Z" fill="var(--fill-0, #80C4F4)"/>
<path id="Vector_5" d="M34.8695 25.2213C41.6561 24.886 47.4297 30.1154 47.7657 36.902C48.1017 43.6885 42.8729 49.4627 36.0864 49.7995C29.2988 50.1362 23.5237 44.9064 23.1875 38.1189C22.8515 31.3313 28.0818 25.5567 34.8695 25.2213ZM36.5949 47.7064C42.2353 47.081 46.2954 41.9939 45.6546 36.3552C45.0136 30.7166 39.9154 26.6703 34.2785 27.3267C28.6634 27.9805 24.6363 33.0547 25.2747 38.6716C25.9131 44.2884 30.9763 48.3295 36.5949 47.7064Z" fill="var(--fill-0, #80C4F4)"/>
<path id="Vector_6" d="M31.2873 29.771C31.6357 29.7563 31.8759 29.919 32.1717 30.0838C33.129 31.5015 30.9992 31.9966 30.3189 32.9627C29.4755 34.0898 28.9485 35.0271 28.7423 36.4369C28.6092 37.3471 28.6658 38.1814 27.7387 38.5785C27.5721 38.6001 27.4028 38.5738 27.2506 38.5026C27.0237 38.3968 26.7672 38.1427 26.7221 37.8996C26.1706 34.9281 28.5637 30.7651 31.2873 29.771Z" fill="var(--fill-0, #80C4F4)"/>
<path id="Vector_7" d="M35.208 28.5819C36.3568 28.4895 37.1615 29.9687 35.8302 30.5059C35.411 30.675 35.0476 30.6768 34.6042 30.715C34.3102 30.7095 34.0005 30.7294 33.7502 30.5588C33.3174 30.2638 33.0297 29.6973 33.376 29.2207C33.7552 28.6991 34.6121 28.685 35.208 28.5819Z" fill="var(--fill-0, #80C4F4)"/>
<path id="Vector_8" d="M18.7632 8.661C19.229 8.58273 19.8981 8.74948 20.3155 8.94404C21.0781 9.29938 21.7282 9.99908 22.0019 10.7972C22.6293 12.6269 21.7196 19.8199 20.8031 21.5937C20.4344 22.3074 19.844 22.6107 19.1101 22.838C18.3176 22.9211 17.232 22.3641 16.9574 21.5796C16.358 19.8671 15.8616 17.6156 15.7449 15.7949C15.5612 12.9284 14.7414 8.98917 18.7632 8.661ZM18.8649 20.7984C18.9113 20.7619 19.0117 20.7031 19.0428 20.658C19.2819 20.3116 19.8115 17.1988 19.8788 16.6067C19.9695 15.8093 20.2818 11.5106 19.8823 11.0141C19.6986 10.7859 19.2198 10.6336 18.936 10.6192C18.7425 10.6419 17.9179 10.7873 17.8502 11.0082C17.3904 12.509 17.9767 19.8743 18.8649 20.7984Z" fill="var(--fill-0, #80C4F4)"/>
<path id="Vector_9" d="M18.5597 23.9521C19.9696 23.776 21.2587 24.7673 21.4504 26.1752C21.6421 27.5831 20.6651 28.883 19.2594 29.0904C18.3362 29.2265 17.4111 28.856 16.8369 28.1203C16.2628 27.3846 16.1283 26.3971 16.4848 25.5347C16.8412 24.6722 17.6337 24.0678 18.5597 23.9521ZM18.9456 27.1193C19.2615 27.086 19.4924 26.8055 19.4644 26.489C19.4363 26.1725 19.1598 25.937 18.8429 25.9598C18.6332 25.9748 18.4478 26.1018 18.3581 26.292C18.2684 26.4822 18.2882 26.706 18.4099 26.8774C18.5317 27.0489 18.7364 27.1413 18.9456 27.1193Z" fill="var(--fill-0, #80C4F4)"/>
<path id="Vector_10" d="M59.6105 7.17526C60.6724 5.28 62.3644 4.64781 64.1666 6.21784C64.5474 6.54989 64.7556 7.00337 65 7.44345V8.87828C64.4446 9.65504 64.5322 10.0893 63.4653 10.6038C61.8709 11.3728 60.3715 10.7063 59.6113 9.17401C58.8195 9.28745 56.9221 9.23952 56.0432 9.23863L49.375 9.23108L40.8753 9.23114C39.5422 9.23286 37.3362 9.29589 36.0784 9.18411C35.585 10.0315 33.4278 13.7508 32.6815 14.0396C32.4979 14.1106 32.2777 14.1077 32.1001 14.0214C31.6909 13.8225 31.5289 13.3623 31.3975 12.9599C31.9222 11.8456 34.3113 7.87001 35.2459 7.17114C36.0021 7.13343 37.0937 7.17209 37.876 7.17253L43.2719 7.17342L59.6105 7.17526ZM61.6333 8.76376L62.3694 8.98079C62.7068 8.71051 62.8699 8.57003 62.9403 8.12608C63.0036 7.72694 62.5714 7.41178 62.2163 7.41375C61.3288 7.70878 61.3146 7.90207 61.6333 8.76376Z" fill="var(--fill-0, #80C4F4)"/>
</g>
</svg>
