<svg xmlns="http://www.w3.org/2000/svg" xmlns:xlink="http://www.w3.org/1999/xlink" id="Layer_2" viewBox="0 0 799.15 336"><defs><style>.cls-1{fill:url(#linear-gradient-2);}.cls-2{fill:#fff;}.cls-3{fill:url(#linear-gradient-6);}.cls-4{fill:#4d4d4d;}.cls-5{fill:#016936;}.cls-6{fill:#03872a;}.cls-7{fill:url(#linear-gradient-5);}.cls-8{fill:url(#linear-gradient-3);}.cls-9{fill:url(#linear-gradient);}.cls-10{fill:url(#linear-gradient-4);}</style><linearGradient id="linear-gradient" x1="42.33" y1="38.37" x2="129.58" y2="44.3" gradientUnits="userSpaceOnUse"><stop offset="0" stop-color="#00885c"></stop><stop offset="1" stop-color="#019e8e"></stop></linearGradient><linearGradient id="linear-gradient-2" x1="271.52" y1="244.64" x2="311.34" y2="177.71" gradientUnits="userSpaceOnUse"><stop offset="0" stop-color="#00935f"></stop><stop offset="1" stop-color="#009687"></stop></linearGradient><linearGradient id="linear-gradient-3" x1="61.92" y1="262.12" x2="144.17" y2="180.43" gradientUnits="userSpaceOnUse"><stop offset="0" stop-color="#057713"></stop><stop offset="1" stop-color="#016d3e"></stop></linearGradient><linearGradient id="linear-gradient-4" x1="258.61" y1="63.19" x2="181.51" y2="144.53" gradientUnits="userSpaceOnUse"><stop offset="0" stop-color="#036c61"></stop><stop offset="1" stop-color="#016542"></stop></linearGradient><linearGradient id="linear-gradient-5" x1="25.89" y1="30.39" x2="55.26" y2="113.41" gradientUnits="userSpaceOnUse"><stop offset="0" stop-color="#3fdc93"></stop><stop offset="1" stop-color="#45d689"></stop></linearGradient><linearGradient id="linear-gradient-6" x1="15.78" y1="102.7" x2="21.57" y2="146.46" gradientUnits="userSpaceOnUse"><stop offset="0" stop-color="#50db89"></stop><stop offset="1" stop-color="#59e491"></stop></linearGradient></defs><g id="Layer_1-2"><path class="cls-4" d="m427.01,96.1c-11.97,0-21.17-3.16-27.59-9.47-6.43-6.31-9.64-16.19-9.64-29.63,0-8.81,1.5-16.1,4.52-21.86,3.01-5.76,7.38-10.08,13.11-12.94s12.7-4.3,20.93-4.3c4.92,0,9.49.55,13.71,1.65,4.22,1.1,7.93,2.77,11.12,5.01,3.19,2.24,5.65,5.05,7.38,8.43,1.72,3.38,2.59,7.38,2.59,12h-12.56c0-2.86-.57-5.34-1.71-7.43-1.14-2.09-2.72-3.84-4.74-5.23-2.02-1.39-4.37-2.4-7.05-3.03-2.68-.62-5.53-.94-8.54-.94-4.19,0-7.91.55-11.18,1.65-3.27,1.1-6,2.79-8.21,5.07-2.2,2.28-3.85,5.14-4.96,8.59-1.1,3.45-1.65,7.53-1.65,12.23v2.31c0,6.46.94,11.71,2.81,15.75,1.87,4.04,4.66,6.99,8.37,8.87,3.71,1.87,8.24,2.81,13.6,2.81,5.07,0,9.32-.73,12.78-2.2,3.45-1.47,6.09-3.65,7.93-6.55,1.83-2.9,2.75-6.52,2.75-10.85v-1.1h-25.44v-10.24h37.78v40.09h-8.92l-1.21-9.03c-2.06,2.42-4.41,4.39-7.05,5.89-2.64,1.51-5.53,2.63-8.65,3.36-3.12.73-6.55,1.1-10.3,1.1Z"></path><path class="cls-4" d="m478.78,94.78v-57.93h9.47l.99,9.36h.66c.66-1.83,1.52-3.56,2.59-5.18,1.06-1.61,2.46-2.94,4.19-3.96,1.72-1.03,3.83-1.54,6.33-1.54,1.17,0,2.22.11,3.14.33.92.22,1.63.4,2.15.55v10.79h-3.86c-2.35,0-4.42.37-6.22,1.1-1.8.73-3.3,1.82-4.51,3.25-1.21,1.43-2.09,3.18-2.64,5.23-.55,2.06-.83,4.37-.83,6.94v31.06h-11.45Z"></path><path class="cls-4" d="m539.79,96.1c-5.95,0-10.92-1.08-14.92-3.25-4-2.17-7.03-5.49-9.09-9.97-2.06-4.48-3.08-10.17-3.08-17.07s1.03-12.68,3.08-17.13c2.05-4.44,5.1-7.75,9.14-9.91,4.04-2.17,9.07-3.25,15.09-3.25,5.51,0,10.11,1.05,13.82,3.14,3.71,2.09,6.51,5.27,8.42,9.53,1.91,4.26,2.86,9.62,2.86,16.08v4.41h-40.64c.15,4.11.77,7.54,1.87,10.3s2.77,4.77,5.01,6.06c2.24,1.29,5.08,1.93,8.54,1.93,2.13,0,4.04-.28,5.73-.83,1.69-.55,3.12-1.36,4.29-2.42,1.17-1.06,2.09-2.35,2.75-3.85.66-1.5.99-3.21.99-5.12h11.23c0,3.45-.59,6.5-1.76,9.14-1.18,2.64-2.88,4.86-5.12,6.66-2.24,1.8-4.9,3.18-7.98,4.13-3.08.95-6.5,1.43-10.24,1.43Zm-15.09-35.79h28.42c0-2.86-.31-5.27-.94-7.21-.62-1.94-1.52-3.54-2.7-4.79-1.17-1.25-2.57-2.15-4.18-2.7-1.62-.55-3.45-.83-5.51-.83-3.08,0-5.71.55-7.88,1.65-2.17,1.1-3.84,2.81-5.01,5.12-1.18,2.31-1.91,5.23-2.2,8.76Z"></path><path class="cls-4" d="m600.8,96.1c-5.95,0-10.92-1.08-14.92-3.25-4-2.17-7.03-5.49-9.09-9.97-2.06-4.48-3.08-10.17-3.08-17.07s1.03-12.68,3.08-17.13c2.05-4.44,5.1-7.75,9.14-9.91,4.04-2.17,9.07-3.25,15.09-3.25,5.51,0,10.11,1.05,13.82,3.14,3.71,2.09,6.51,5.27,8.42,9.53,1.91,4.26,2.86,9.62,2.86,16.08v4.41h-40.64c.15,4.11.77,7.54,1.87,10.3s2.77,4.77,5.01,6.06c2.24,1.29,5.08,1.93,8.54,1.93,2.13,0,4.04-.28,5.73-.83,1.69-.55,3.12-1.36,4.29-2.42,1.17-1.06,2.09-2.35,2.75-3.85.66-1.5.99-3.21.99-5.12h11.23c0,3.45-.59,6.5-1.76,9.14-1.18,2.64-2.88,4.86-5.12,6.66-2.24,1.8-4.9,3.18-7.98,4.13-3.08.95-6.5,1.43-10.24,1.43Zm-15.09-35.79h28.42c0-2.86-.31-5.27-.94-7.21-.62-1.94-1.52-3.54-2.7-4.79-1.17-1.25-2.57-2.15-4.18-2.7-1.62-.55-3.45-.83-5.51-.83-3.08,0-5.71.55-7.88,1.65-2.17,1.1-3.84,2.81-5.01,5.12-1.18,2.31-1.91,5.23-2.2,8.76Z"></path><path class="cls-4" d="m637.81,94.78v-57.93h9.47l.99,8.26h.77c1.39-2.13,3.05-3.89,4.96-5.29,1.91-1.39,4.02-2.46,6.33-3.19,2.31-.73,4.86-1.1,7.65-1.1,3.67,0,6.9.64,9.69,1.93,2.79,1.29,4.97,3.36,6.55,6.22,1.58,2.86,2.37,6.72,2.37,11.56v39.54h-11.45v-37.78c0-2.2-.28-4.04-.83-5.51-.55-1.47-1.34-2.64-2.37-3.52-1.03-.88-2.24-1.5-3.63-1.87-1.4-.37-2.94-.55-4.63-.55-2.64,0-5.05.64-7.21,1.93-2.17,1.29-3.91,3.07-5.23,5.34-1.32,2.28-1.98,4.96-1.98,8.04v33.92h-11.45Z"></path><path class="cls-4" d="m392.76,205.78v-75.55h53.97v10.57h-41.63v22.36h37.67v10.46h-37.67v32.16h-12.33Z"></path><path class="cls-4" d="m458.51,137.82v-11.67h11.45v11.67h-11.45Zm0,67.95v-57.93h11.45v57.93h-11.45Z"></path><path class="cls-4" d="m484.72,205.78v-57.93h9.47l.99,8.26h.77c1.39-2.13,3.05-3.89,4.96-5.29,1.91-1.39,4.02-2.46,6.33-3.19,2.31-.73,4.86-1.1,7.65-1.1,3.67,0,6.9.64,9.69,1.93,2.79,1.29,4.97,3.36,6.55,6.22,1.58,2.86,2.37,6.72,2.37,11.56v39.54h-11.45v-37.78c0-2.2-.28-4.04-.83-5.51-.55-1.47-1.34-2.64-2.37-3.52-1.03-.88-2.24-1.5-3.63-1.87-1.4-.37-2.94-.55-4.63-.55-2.64,0-5.05.64-7.21,1.93-2.17,1.29-3.91,3.07-5.23,5.34-1.32,2.28-1.98,4.96-1.98,8.04v33.92h-11.45Z"></path><path class="cls-4" d="m562.26,207.1c-3.3,0-5.89-.64-7.76-1.93-1.87-1.28-3.19-2.94-3.96-4.96-.77-2.02-1.16-4.17-1.16-6.44v-36.45h-7.27v-9.47h7.49l2.09-16.19h9.14v16.19h10.46v9.47h-10.46v35.13c0,1.69.37,2.97,1.1,3.85.73.88,1.94,1.32,3.63,1.32h5.73v7.71c-.74.29-1.63.57-2.7.83-1.07.26-2.15.48-3.25.66-1.1.18-2.13.28-3.08.28Z"></path><path class="cls-4" d="m605.43,207.1c-5.95,0-10.92-1.08-14.92-3.25-4-2.17-7.03-5.49-9.09-9.97-2.06-4.48-3.08-10.17-3.08-17.07s1.03-12.68,3.08-17.13c2.05-4.44,5.1-7.75,9.14-9.91,4.04-2.17,9.07-3.25,15.09-3.25,5.51,0,10.11,1.05,13.82,3.14,3.71,2.09,6.51,5.27,8.42,9.53,1.91,4.26,2.86,9.62,2.86,16.08v4.41h-40.64c.15,4.11.77,7.54,1.87,10.3s2.77,4.77,5.01,6.06c2.24,1.29,5.08,1.93,8.54,1.93,2.13,0,4.04-.28,5.73-.83,1.69-.55,3.12-1.36,4.29-2.42,1.17-1.06,2.09-2.35,2.75-3.85.66-1.5.99-3.21.99-5.12h11.23c0,3.45-.59,6.5-1.76,9.14-1.18,2.64-2.88,4.86-5.12,6.66-2.24,1.8-4.9,3.18-7.98,4.13-3.08.95-6.5,1.43-10.24,1.43Zm-15.09-35.79h28.42c0-2.86-.31-5.27-.94-7.21-.62-1.94-1.52-3.54-2.7-4.79-1.17-1.25-2.57-2.15-4.18-2.7-1.62-.55-3.45-.83-5.51-.83-3.08,0-5.71.55-7.88,1.65-2.17,1.1-3.84,2.81-5.01,5.12-1.18,2.31-1.91,5.23-2.2,8.76Z"></path><path class="cls-4" d="m665.45,207.1c-5.8,0-10.65-1.08-14.54-3.25-3.89-2.17-6.81-5.49-8.76-9.97-1.95-4.48-2.92-10.17-2.92-17.07s.99-12.57,2.97-17.02c1.98-4.44,4.94-7.76,8.87-9.97,3.93-2.2,8.76-3.3,14.48-3.3,3.96,0,7.42.5,10.35,1.49,2.94.99,5.43,2.46,7.49,4.41,2.05,1.95,3.58,4.35,4.57,7.21.99,2.86,1.49,6.13,1.49,9.8h-11.56c0-3.08-.44-5.62-1.32-7.6-.88-1.98-2.24-3.47-4.08-4.46-1.84-.99-4.22-1.49-7.16-1.49-3.08,0-5.69.72-7.82,2.15-2.13,1.43-3.75,3.6-4.85,6.5-1.1,2.9-1.65,6.7-1.65,11.4v1.87c0,4.48.53,8.21,1.6,11.18,1.06,2.97,2.68,5.18,4.85,6.61,2.17,1.43,4.94,2.15,8.32,2.15,2.94,0,5.3-.53,7.1-1.6,1.8-1.06,3.16-2.61,4.08-4.63.92-2.02,1.38-4.46,1.38-7.32h11.12c0,3.45-.5,6.57-1.49,9.36-.99,2.79-2.5,5.2-4.52,7.21s-4.53,3.58-7.54,4.68c-3.01,1.1-6.5,1.65-10.46,1.65Z"></path><path class="cls-4" d="m701.02,205.78v-79.63h11.45v28.64h.77c1.39-1.76,2.97-3.25,4.74-4.46,1.76-1.21,3.74-2.15,5.95-2.81,2.2-.66,4.63-.99,7.27-.99,3.67,0,6.9.64,9.69,1.93,2.79,1.29,4.97,3.36,6.55,6.22,1.58,2.86,2.37,6.72,2.37,11.56v39.54h-11.45v-37.78c0-2.2-.28-4.04-.83-5.51-.55-1.47-1.34-2.64-2.37-3.52-1.03-.88-2.24-1.5-3.63-1.87-1.4-.37-2.94-.55-4.63-.55-2.64,0-5.05.62-7.21,1.87-2.17,1.25-3.91,3.01-5.23,5.29-1.32,2.28-1.98,4.99-1.98,8.15v33.92h-11.45Z"></path><path class="cls-4" d="m392.76,316.78v-75.55h11.89l34.47,47.36c.44.44.94,1.06,1.49,1.87.55.81,1.08,1.62,1.6,2.42.51.81.88,1.47,1.1,1.98h.55v-53.64h11.89v75.55h-11.45l-34.91-47.91c-.59-.88-1.32-2-2.2-3.36-.88-1.36-1.54-2.4-1.98-3.14h-.55v54.41h-11.89Z"></path><path class="cls-4" d="m496.07,318.1c-5.95,0-10.92-1.08-14.92-3.25-4-2.17-7.03-5.49-9.09-9.97-2.06-4.48-3.08-10.17-3.08-17.07s1.03-12.68,3.08-17.13c2.05-4.44,5.1-7.75,9.14-9.91,4.04-2.17,9.07-3.25,15.09-3.25,5.51,0,10.11,1.05,13.82,3.14,3.71,2.09,6.51,5.27,8.42,9.53,1.91,4.26,2.86,9.62,2.86,16.08v4.41h-40.64c.15,4.11.77,7.54,1.87,10.3s2.77,4.77,5.01,6.06c2.24,1.29,5.08,1.93,8.54,1.93,2.13,0,4.04-.28,5.73-.83,1.69-.55,3.12-1.36,4.29-2.42,1.17-1.06,2.09-2.35,2.75-3.85.66-1.5.99-3.21.99-5.12h11.23c0,3.45-.59,6.5-1.76,9.14-1.18,2.64-2.88,4.86-5.12,6.66-2.24,1.8-4.9,3.18-7.98,4.13-3.08.95-6.5,1.43-10.24,1.43Zm-15.09-35.79h28.42c0-2.86-.31-5.27-.94-7.21-.62-1.94-1.52-3.54-2.7-4.79-1.17-1.25-2.57-2.15-4.18-2.7-1.62-.55-3.45-.83-5.51-.83-3.08,0-5.71.55-7.88,1.65-2.17,1.1-3.84,2.81-5.01,5.12-1.18,2.31-1.91,5.23-2.2,8.76Z"></path><path class="cls-4" d="m547.5,318.1c-3.3,0-5.89-.64-7.76-1.93-1.87-1.28-3.19-2.94-3.96-4.96-.77-2.02-1.16-4.17-1.16-6.44v-36.45h-7.27v-9.47h7.49l2.09-16.19h9.14v16.19h10.46v9.47h-10.46v35.13c0,1.69.37,2.97,1.1,3.85.73.88,1.94,1.32,3.63,1.32h5.73v7.71c-.74.29-1.63.57-2.7.83-1.07.26-2.15.48-3.25.66-1.1.18-2.13.28-3.08.28Z"></path><path class="cls-4" d="m577.45,316.78l-17.4-57.93h11.89l8.48,31.72c.44,1.54.83,3.16,1.16,4.85.33,1.69.64,3.19.94,4.52.29,1.32.51,2.24.66,2.75h.66c.29-1.32.62-2.83.99-4.52.37-1.69.7-3.25.99-4.68.29-1.43.51-2.51.66-3.25l7.71-31.39h12.33l7.93,31.5c.29,1.18.61,2.52.94,4.02.33,1.51.66,2.99.99,4.46.33,1.47.57,2.75.72,3.85h.66c.22-1.03.5-2.26.83-3.69s.68-2.88,1.05-4.35c.37-1.47.7-2.83.99-4.07l8.37-31.72h10.9l-17.29,57.93h-11.89l-7.05-28.86c-.29-1.39-.66-3.01-1.1-4.85-.44-1.83-.84-3.67-1.21-5.51-.37-1.83-.66-3.45-.88-4.85h-.66c-.15.81-.35,1.98-.61,3.52-.26,1.54-.61,3.3-1.05,5.29-.44,1.98-.96,4.11-1.54,6.39l-7.27,28.86h-11.89Z"></path><path class="cls-4" d="m672.61,318.1c-6.02,0-11.11-1.08-15.25-3.25-4.15-2.17-7.27-5.49-9.36-9.97-2.09-4.48-3.14-10.17-3.14-17.07s1.05-12.68,3.14-17.13c2.09-4.44,5.21-7.75,9.36-9.91,4.15-2.17,9.23-3.25,15.25-3.25s11.31,1.08,15.42,3.25c4.11,2.17,7.21,5.47,9.31,9.91,2.09,4.44,3.14,10.15,3.14,17.13s-1.05,12.59-3.14,17.07c-2.09,4.48-5.2,7.8-9.31,9.97-4.11,2.16-9.25,3.25-15.42,3.25Zm0-9.47c3.67,0,6.68-.72,9.03-2.15,2.35-1.43,4.09-3.62,5.23-6.55,1.14-2.94,1.71-6.64,1.71-11.12v-1.98c0-4.48-.57-8.19-1.71-11.12-1.14-2.94-2.88-5.12-5.23-6.55-2.35-1.43-5.36-2.15-9.03-2.15s-6.57.72-8.92,2.15c-2.35,1.43-4.09,3.62-5.23,6.55-1.14,2.94-1.71,6.65-1.71,11.12v1.98c0,4.48.57,8.19,1.71,11.12,1.14,2.94,2.88,5.12,5.23,6.55,2.35,1.43,5.32,2.15,8.92,2.15Z"></path><path class="cls-4" d="m712.15,316.78v-57.93h9.47l.99,9.36h.66c.66-1.83,1.52-3.56,2.59-5.18,1.06-1.61,2.46-2.94,4.19-3.96,1.72-1.03,3.83-1.54,6.33-1.54,1.17,0,2.22.11,3.14.33.92.22,1.63.4,2.15.55v10.79h-3.86c-2.35,0-4.42.37-6.22,1.1-1.8.73-3.3,1.82-4.51,3.25-1.21,1.43-2.09,3.18-2.64,5.23-.55,2.06-.83,4.37-.83,6.94v31.06h-11.45Z"></path><path class="cls-4" d="m750.25,316.78v-79.63h11.45v48.13l22.8-26.43h13.55l-19.6,22.47,20.71,35.46h-13.22l-14.87-27.09-9.36,9.25v17.84h-11.45Z"></path><path class="cls-9" d="m13.75,11.49l79.15,77.57L181.37.59c-4.63-.38-9.31-.59-14.04-.59H43c-11.3,0-21.57,4.36-29.24,11.49Z"></path><path class="cls-1" d="m287.46,284.26c28.71-30.04,46.35-70.76,46.35-115.59,0-11.12-1.1-22-3.17-32.52l-95.71,95.21,52.53,52.9Z"></path><path class="cls-8" d="m.59,181.37h0c5.84,75.38,60.71,137.16,133.4,151.46l100.94-101.47L92.91,89.06.59,181.37Z"></path><path class="cls-10" d="m181.37.59l-88.46,88.46,142.02,142.31,95.71-95.21C316.36,63.63,256.53,6.63,181.37.59Z"></path><path class="cls-6" d="m166.48,336c23.35,0,45.58-4.79,65.77-13.43l-44.12-44.16-54.15,54.43c10.51,2.07,21.38,3.16,32.49,3.16Z"></path><path class="cls-5" d="m234.93,231.36l-46.8,47.04,44.12,44.16c21-8.99,39.8-22.14,55.34-38.43l-52.66-52.77Z"></path><path class="cls-7" d="m13.75,11.49C5.3,19.34,0,30.55,0,42.99v45l45.79,48.17,47.11-47.11L13.75,11.49Z"></path><path class="cls-3" d="m0,167.33c0,4.73.21,9.41.59,14.04l45.2-45.2L0,88v79.33Z"></path><polygon class="cls-2" points="250.59 135.6 190.82 135.6 190.82 75.83 139.34 75.83 139.34 135.6 79.57 135.6 79.57 187.08 139.34 187.08 139.34 246.86 190.82 246.86 190.82 187.08 250.59 187.08 250.59 135.6"></polygon></g></svg>