<svg preserveAspectRatio="none" width="100%" height="100%" overflow="visible" style="display: block;" viewBox="0 0 65 65" fill="none" xmlns="http://www.w3.org/2000/svg">
<g id="OM-Analytix-scenario-events.webp [Vectorized]">
<path id="Vector" d="M7.54832 8.71533C7.63598 8.70791 7.7237 8.70181 7.81155 8.69711C9.83373 8.59422 12.2022 8.73279 14.2774 8.68175C15.7096 8.7081 17.1653 8.62367 18.5923 8.73564C19.5568 9.01037 19.6629 9.45769 19.6982 10.566C19.7283 11.5039 20.1416 15.8317 17.9054 14.2732C17.4274 13.9401 17.5785 11.4455 17.5884 10.7086C16.3058 10.7945 14.4796 10.7227 13.1614 10.7439C12.1932 10.7594 9.97496 10.836 9.1332 10.6502C9.55386 11.2352 10.0009 11.9417 10.3959 12.5663C11.1314 13.7139 13.2401 16.4779 13.5787 17.5937C13.7203 18.0603 9.56915 24.113 9.15522 24.6989C9.88108 24.5976 12.0442 24.6665 12.8381 24.6735C14.4023 24.6775 16.0636 24.6864 17.6239 24.6231C17.5636 23.8745 17.5383 23.0603 17.543 22.3087C17.5505 21.1293 17.9221 20.7968 19.0112 20.8282C19.3479 21.0691 19.5368 21.2208 19.6404 21.6301C19.7867 22.2077 19.7661 24.7202 19.6786 25.3671C19.6459 25.6087 19.5789 25.8444 19.4518 26.0538C19.2647 26.3621 18.8077 26.5634 18.4695 26.6379C17.5134 26.8486 14.9518 26.7093 13.8705 26.7099C12.0493 26.7109 10.1658 26.8249 8.35104 26.7094C7.98573 26.6861 7.40226 26.6598 7.09585 26.4542C6.78704 26.2471 6.53624 25.8278 6.47315 25.4633C6.33628 24.6733 10.571 18.7405 11.3315 17.6535C11.1078 17.4329 9.88489 15.4834 9.61797 15.0882C8.79169 13.825 7.84697 12.5448 7.04685 11.2755C6.69506 10.7173 6.15501 9.85429 6.67481 9.30985C7.0035 8.96562 7.09528 8.85523 7.54832 8.71533Z" fill="var(--fill-0, #80C4F4)"/>
<path id="Vector_2" d="M29.3401 55.5281C29.268 53.4388 29.3243 51.0035 29.3245 48.8865L29.3195 36.6338L29.3122 32.0689C29.3095 31.349 29.3273 30.1368 29.2406 29.4568C29.1469 28.7215 28.6179 27.6396 28.4134 26.8463C27.3247 22.6244 28.0235 18.5041 30.2279 14.7628C32.3594 11.145 35.9414 8.72873 39.9688 7.73875C40.8045 7.5334 41.9258 7.46091 42.8012 7.42155C46.2598 7.26616 48.8592 7.89998 51.8452 9.71445C55.3684 11.8554 57.6659 15.2475 58.7373 19.1859C59.6427 22.5138 59.2853 26.9408 57.5085 29.9151C58.8708 31.1799 60.1663 32.4591 61.4729 33.7868C62.4153 34.7445 63.535 35.7577 64.3125 36.8476C64.4579 37.0506 64.8115 37.9234 65 38.2757V40.6794C64.8 41.0696 64.6274 41.6062 64.3976 41.9499C63.1222 43.8382 60.82 45.0253 58.571 44.2056C56.6971 43.5228 55.6524 42.0531 54.2846 40.7332C52.99 39.4838 51.7871 38.1577 50.4501 36.9605C50.0014 37.2793 49.4686 37.4029 48.9634 37.6026C46.7418 38.4809 43.6736 38.839 41.2767 38.4309C41.0946 38.4012 40.9157 38.3544 40.7422 38.2912L40.7269 50.3412L40.7384 53.4106C40.7417 54.027 40.778 54.9697 40.672 55.5493C41.9651 55.5229 43.8171 55.4724 42.9507 57.3498C42.4557 57.5487 42.077 57.5899 41.5476 57.5957C39.3314 57.6202 37.1011 57.596 34.8846 57.5953L22.9443 57.6188L8.6417 57.6181C6.39418 57.617 4.14621 57.63 1.89902 57.6183C1.14375 57.6144 0.597212 57.6238 0 57.1265V56.1073C0.769311 55.4055 1.67646 55.54 2.68567 55.54C2.57681 51.3056 2.67651 46.6692 2.67574 42.4041L2.66879 37.2225C2.66724 36.2864 2.65205 35.3279 2.69094 34.3924C2.71211 33.8834 2.93562 33.4086 3.32279 33.0767C3.5809 32.8555 4.15543 32.6963 4.49988 32.676C5.73932 32.603 7.0492 32.6626 8.29797 32.6662C9.61937 32.6878 10.9473 32.6008 12.266 32.6938C13.2255 32.7615 14.0304 33.3367 14.0777 34.3492C14.1449 35.7876 14.1092 37.2354 14.1069 38.6747L14.1068 46.458L14.1123 52.2057C14.1161 53.0773 14.1752 54.7471 14.0697 55.5549C14.6386 55.5108 15.3809 55.5394 16.0033 55.5035C15.9468 54.6581 15.9717 53.348 15.9714 52.4856L15.9738 47.2956L15.9588 43.5616C15.9515 42.1559 15.5672 39.9853 17.6229 39.9348C20.0332 39.8755 22.4899 39.9609 24.8966 39.9125C26.232 39.8856 27.3454 40.1159 27.3344 41.6819C27.3702 42.7932 27.3628 43.899 27.3581 45.019L27.3503 50.6175C27.3494 51.5809 27.3543 52.5444 27.365 53.5077C27.3768 54.1158 27.4496 54.9672 27.366 55.544C27.9501 55.5106 28.7369 55.5305 29.3401 55.5281ZM44.6535 36.4791C52.1087 35.8774 57.6667 29.3496 57.0719 21.894C56.4771 14.4383 49.9545 8.87421 42.4983 9.46201C35.0323 10.0506 29.4593 16.5837 30.0548 24.0492C30.6504 31.5147 37.1886 37.0815 44.6535 36.4791ZM12.0051 34.8185C10.9243 34.9193 9.16214 34.8392 8.02953 34.8588C7.29815 34.8714 5.40935 34.9088 4.75875 34.8269C4.8636 35.6611 4.82787 36.9257 4.82806 37.8002L4.82855 42.553L4.82763 51.0143C4.82728 52.4921 4.86047 54.1042 4.81703 55.5643C7.01372 55.4758 9.77126 55.5664 12.0342 55.5473C11.9821 54.6673 11.9802 53.7735 11.9859 52.892C12.0242 46.8716 11.9286 40.837 12.0051 34.8185ZM38.5763 55.5329C38.6799 55.341 38.6137 54.5505 38.6086 54.2698C38.5951 53.3376 38.5908 52.4054 38.5956 51.4732C38.5939 46.9567 38.5343 42.2635 38.6053 37.7644C36.3044 36.9894 34.5398 35.9215 32.7236 34.2793C32.4345 34.0179 31.6405 32.9688 31.3982 32.8471C31.4509 34.8107 31.4039 36.7524 31.4006 38.7211L31.3958 49.0844C31.396 51.0244 31.3755 52.9593 31.4615 54.8975C31.4703 55.0956 31.4093 55.2428 31.4327 55.4598C31.6644 55.614 37.8775 55.5826 38.5763 55.5329ZM59.1294 34.4109C58.7152 34.0325 56.6537 31.9073 56.4136 31.8199C56.0385 32.5199 55.1839 33.4146 54.6462 34.0072C54.0173 34.7003 53.0533 35.2478 52.3838 35.9207L54.5155 37.9714C54.6905 38.142 54.7899 38.3012 54.9565 38.4589L55.0798 38.4299C55.6933 37.5817 58.3031 35.1568 59.1294 34.4109ZM56.4479 39.9681C57.2748 40.7304 58.1753 41.8845 59.135 42.2294C62.281 42.9917 64.1437 39.6765 62.0645 37.3534C61.6342 36.8727 60.9794 36.2664 60.4933 35.8328C59.8689 36.7466 58.9848 37.4136 58.1917 38.1998C57.6577 38.7291 56.9922 39.5043 56.4479 39.9681ZM25.085 41.9364L20.9271 41.9664C20.0422 41.9732 18.9213 42.0397 18.0781 41.9001C18.1502 43.5319 17.9227 55.1343 18.1382 55.5232L18.2111 55.5318C20.5654 55.574 22.9202 55.5791 25.2747 55.5469C25.2032 53.9989 25.3894 42.3352 25.1551 41.9315L25.085 41.9364Z" fill="var(--fill-0, #80C4F4)"/>
<path id="Vector_3" d="M42.5924 11.2805C49.0598 10.7455 54.7362 15.5549 55.2708 22.0223C55.8054 28.4897 50.9957 34.1659 44.5282 34.7001C38.0613 35.2343 32.3857 30.425 31.8512 23.9581C31.3167 17.4913 36.1255 11.8154 42.5924 11.2805ZM33.9283 24.1012L36.9623 24.1088C39.2485 24.1005 40.863 23.7823 40.7494 26.702C40.6788 28.5181 40.7858 30.4453 40.716 32.2783C42.0949 32.537 43.2376 32.6326 44.6511 32.5545C47.1453 32.3021 49.4343 31.0604 51.0059 29.1071C56.3268 22.5349 51.4173 12.6604 42.5791 13.3318C42.5535 13.3364 42.528 13.3409 42.5025 13.3455C38.6227 14.0295 35.673 16.0648 34.4398 19.9323C33.951 21.4649 33.9507 22.5195 33.9283 24.1012ZM38.6874 31.3236C38.5503 30.6533 38.5704 26.9693 38.6341 26.1723C37.6631 26.2302 35.7013 26.2289 34.7233 26.1764L34.5481 26.2354C34.4711 26.5033 35.0617 27.5805 35.1901 27.847C35.6359 28.7723 37.7601 31.0922 38.6874 31.3236Z" fill="var(--fill-0, #80C4F4)"/>
</g>
</svg>
