<svg xmlns="http://www.w3.org/2000/svg" xmlns:xlink="http://www.w3.org/1999/xlink" width="129.477" height="54.554" viewBox="0 0 129.477 54.554"><defs><clipPath id="clip-path"><rect id="Rectangle_3076" data-name="Rectangle 3076" width="129.477" height="54.554" fill="none"></rect></clipPath></defs><g id="Group_1975" data-name="Group 1975" clip-path="url(#clip-path)"><path id="Path_12527" data-name="Path 12527" d="M2,25.809a1.427,1.427,0,0,1-.422-1.1V10.141A3.824,3.824,0,0,1,2.65,7.271,4.087,4.087,0,0,1,5.631,6.23h8.748a1.732,1.732,0,0,1,1.125.324A1.15,1.15,0,0,1,15.9,7.5a1.116,1.116,0,0,1-.394.914,1.731,1.731,0,0,1-1.125.323h-8.3a1.191,1.191,0,0,0-.957.394A1.59,1.59,0,0,0,4.787,10.2v4.7h7.454a1.731,1.731,0,0,1,1.125.323,1.149,1.149,0,0,1,.394.942,1.117,1.117,0,0,1-.394.914,1.728,1.728,0,0,1-1.125.323H4.787v7.314a1.392,1.392,0,0,1-.45,1.083,1.692,1.692,0,0,1-1.182.408A1.623,1.623,0,0,1,2,25.808" transform="translate(-1.159 -4.572)" fill="#2349c3"></path><path id="Path_12528" data-name="Path 12528" d="M61.539,8.481a1.836,1.836,0,0,1-.077-2.6q.037-.039.077-.077a2.12,2.12,0,0,1,1.477-.52,2.172,2.172,0,0,1,1.491.52,1.807,1.807,0,0,1,.119,2.553c-.038.042-.078.081-.119.119A2.172,2.172,0,0,1,63.015,9a2.118,2.118,0,0,1-1.477-.52m.338,16.638a1.453,1.453,0,0,1-.408-1.1V12.658a1.455,1.455,0,0,1,.408-1.1,1.572,1.572,0,0,1,1.139-.394,1.678,1.678,0,0,1,1.167.394,1.4,1.4,0,0,1,.436,1.1V24.022a1.4,1.4,0,0,1-.436,1.1,1.674,1.674,0,0,1-1.167.394,1.572,1.572,0,0,1-1.139-.394" transform="translate(-44.76 -3.882)" fill="#2349c3"></path><path id="Path_12529" data-name="Path 12529" d="M85.721,41.356a1.428,1.428,0,0,1-.422-1.1V28.9a1.455,1.455,0,0,1,.408-1.1,1.532,1.532,0,0,1,1.111-.394,1.572,1.572,0,0,1,1.139.394,1.456,1.456,0,0,1,.408,1.1v1.1a6.782,6.782,0,0,1,5.57-2.588,5.49,5.49,0,0,1,4.205,1.632,6.314,6.314,0,0,1,1.533,4.5v6.723a1.4,1.4,0,0,1-.436,1.1,1.674,1.674,0,0,1-1.167.394,1.573,1.573,0,0,1-1.139-.394,1.455,1.455,0,0,1-.408-1.1V33.537a3.839,3.839,0,0,0-.844-2.672,3.068,3.068,0,0,0-2.392-.928,4.7,4.7,0,0,0-3.544,1.336,4.977,4.977,0,0,0-1.294,3.615V40.26a1.412,1.412,0,0,1-.436,1.083,1.6,1.6,0,0,1-1.139.408,1.624,1.624,0,0,1-1.153-.394" transform="translate(-62.627 -20.119)" fill="#2349c3"></path><path id="Path_12530" data-name="Path 12530" d="M155.119,23.3a1.569,1.569,0,0,1-.366.957,4,4,0,0,1-1.688,1.378,5.706,5.706,0,0,1-2.419.5,4.548,4.548,0,0,1-3.319-1.181,4.313,4.313,0,0,1-1.21-3.235V14.578h-1.266a1.907,1.907,0,0,1-1.2-.338,1.081,1.081,0,0,1-.436-.9,1.108,1.108,0,0,1,.436-.928,1.907,1.907,0,0,1,1.2-.338h1.266V7.63a1.429,1.429,0,0,1,.422-1.1,1.887,1.887,0,0,1,2.307,0,1.427,1.427,0,0,1,.422,1.1v4.445h3.066a1.858,1.858,0,0,1,1.168.338,1.11,1.11,0,0,1,.436.928,1.094,1.094,0,0,1-.422.9,1.844,1.844,0,0,1-1.181.338h-3.067v7.4a1.646,1.646,0,0,0,.422,1.2,1.568,1.568,0,0,0,1.181.436,2.558,2.558,0,0,0,1.856-.816,1.851,1.851,0,0,1,1.181-.591,1.131,1.131,0,0,1,.788.309.989.989,0,0,1,.422.787" transform="translate(-105.154 -4.508)" fill="#2349c3"></path><path id="Path_12531" data-name="Path 12531" d="M196.1,40.9a6.17,6.17,0,0,1-2.728-2.461,7.358,7.358,0,0,1-.942-3.8,6.959,6.959,0,0,1,2.026-5.316,7.865,7.865,0,0,1,5.626-1.914,10.318,10.318,0,0,1,3.938.7,6.253,6.253,0,0,1,2.672,1.955,4.577,4.577,0,0,1,.957,2.855,2.538,2.538,0,0,1-.787,2,3.224,3.224,0,0,1-2.222.7h-9.115a3.214,3.214,0,0,0,1.238,2.7,5.7,5.7,0,0,0,3.544.957A8.756,8.756,0,0,0,202.642,39a6.015,6.015,0,0,0,1.885-.9,2.646,2.646,0,0,1,1.237-.534,1.116,1.116,0,0,1,.76.394,1.255,1.255,0,0,1,.45.928,1.1,1.1,0,0,1-.478.9,9.345,9.345,0,0,1-6.188,1.969A9.618,9.618,0,0,1,196.1,40.9m7.581-7.553a1.049,1.049,0,0,0,.7-.2.86.86,0,0,0,.225-.675,2.127,2.127,0,0,0-1.237-1.87,6.541,6.541,0,0,0-3.291-.718,5.22,5.22,0,0,0-3.291.942,3.03,3.03,0,0,0-1.21,2.517Z" transform="translate(-141.286 -20.122)" fill="#2349c3"></path><path id="Path_12532" data-name="Path 12532" d="M257.385,39.834a6.823,6.823,0,0,1-2.082-5.289,6.755,6.755,0,0,1,2.082-5.232,8.117,8.117,0,0,1,5.71-1.914,9.632,9.632,0,0,1,3.629.647,5.981,5.981,0,0,1,2.532,1.828,1.274,1.274,0,0,1,.309.787,1.369,1.369,0,0,1-.675,1.125,1.165,1.165,0,0,1-.7.225,1.762,1.762,0,0,1-1.35-.619,4.3,4.3,0,0,0-1.6-1.083,5.748,5.748,0,0,0-2.138-.38,4.206,4.206,0,0,0-4.613,4.615,4.691,4.691,0,0,0,1.21,3.446,4.567,4.567,0,0,0,3.4,1.223,5.64,5.64,0,0,0,4.079-1.576,1.923,1.923,0,0,1,1.322-.675,1.163,1.163,0,0,1,.816.309,1.339,1.339,0,0,1,.591,1.1,1.07,1.07,0,0,1-.365.816,8.506,8.506,0,0,1-2.883,1.94,9.613,9.613,0,0,1-3.558.619,8.115,8.115,0,0,1-5.71-1.914" transform="translate(-187.45 -20.116)" fill="#2349c3"></path><path id="Path_12533" data-name="Path 12533" d="M4.346,116.229a11.01,11.01,0,0,1-3.98-2.588A1.07,1.07,0,0,1,0,112.825a1.359,1.359,0,0,1,.506-1.041,1.129,1.129,0,0,1,.816-.366,1.793,1.793,0,0,1,1.21.591,8.53,8.53,0,0,0,3.052,1.9,10.977,10.977,0,0,0,3.84.661,5.954,5.954,0,0,0,3.221-.731,2.308,2.308,0,0,0,1.139-2.053,2.434,2.434,0,0,0-1.181-2.1,12.244,12.244,0,0,0-4.023-1.421A15.287,15.287,0,0,1,2.5,105.891,4.625,4.625,0,0,1,.619,102.08a4.135,4.135,0,0,1,.97-2.7,6.211,6.211,0,0,1,2.728-1.829A11.743,11.743,0,0,1,8.382,96.9a11.881,11.881,0,0,1,4.655.872,6.449,6.449,0,0,1,3.052,2.419,1.651,1.651,0,0,1,.281.872,1.234,1.234,0,0,1-.619,1.041,1.384,1.384,0,0,1-.731.225,1.5,1.5,0,0,1-.675-.169,1.655,1.655,0,0,1-.562-.45,5.2,5.2,0,0,0-2.236-1.645,8.342,8.342,0,0,0-3.165-.577,6.926,6.926,0,0,0-3.362.661,2.1,2.1,0,0,0-1.167,1.927,2.234,2.234,0,0,0,1.125,1.927A12.989,12.989,0,0,0,8.945,105.4a16.284,16.284,0,0,1,6.189,2.5,4.721,4.721,0,0,1,1.885,3.882,4.5,4.5,0,0,1-.942,2.827,5.962,5.962,0,0,1-2.658,1.885,11.08,11.08,0,0,1-3.994.661,13.835,13.835,0,0,1-5.076-.928" transform="translate(0 -71.148)" fill="#032490"></path><path id="Path_12534" data-name="Path 12534" d="M69.646,132.212a4.083,4.083,0,0,1-1.6-3.375,3.9,3.9,0,0,1,1.7-3.319,7.664,7.664,0,0,1,4.6-1.238,6.728,6.728,0,0,1,4.388,1.294V124.5a2.657,2.657,0,0,0-.886-2.153,3.945,3.945,0,0,0-2.6-.746,7.813,7.813,0,0,0-4.163,1.069,2.2,2.2,0,0,1-1.069.337,1.255,1.255,0,0,1-.928-.45,1.05,1.05,0,0,1-.281-.731,1.223,1.223,0,0,1,.591-1.069,7.724,7.724,0,0,1,2.56-1.2,11.88,11.88,0,0,1,3.235-.436,7.788,7.788,0,0,1,4.979,1.435,4.79,4.79,0,0,1,1.8,3.966v7.538a1.311,1.311,0,0,1-.422,1.027,1.949,1.949,0,0,1-2.293.014,1.29,1.29,0,0,1-.408-1.012v-.534a6.164,6.164,0,0,1-4.922,1.914,6.707,6.707,0,0,1-4.275-1.266m7.989-1.674a1.927,1.927,0,0,0,1.125-1.73,1.879,1.879,0,0,0-1.1-1.688,6.15,6.15,0,0,0-3.008-.618,4.561,4.561,0,0,0-2.574.619,2.1,2.1,0,0,0-.028,3.446,4.494,4.494,0,0,0,2.546.6,6.2,6.2,0,0,0,3.038-.633" transform="translate(-49.957 -87.469)" fill="#032490"></path><path id="Path_12535" data-name="Path 12535" d="M129.1,133.078a1.427,1.427,0,0,1-.422-1.1V120.617a1.455,1.455,0,0,1,.408-1.1,1.533,1.533,0,0,1,1.111-.394,1.572,1.572,0,0,1,1.139.394,1.455,1.455,0,0,1,.408,1.1v1.1a6.781,6.781,0,0,1,5.57-2.588,5.489,5.489,0,0,1,4.205,1.632,6.317,6.317,0,0,1,1.533,4.5v6.723a1.4,1.4,0,0,1-.436,1.1,1.673,1.673,0,0,1-1.167.394,1.572,1.572,0,0,1-1.139-.394,1.452,1.452,0,0,1-.408-1.1v-6.723a3.838,3.838,0,0,0-.844-2.672,3.068,3.068,0,0,0-2.392-.928,4.7,4.7,0,0,0-3.544,1.336,4.976,4.976,0,0,0-1.294,3.615v5.373a1.412,1.412,0,0,1-.436,1.083,1.6,1.6,0,0,1-1.139.408,1.623,1.623,0,0,1-1.153-.394" transform="translate(-94.48 -87.463)" fill="#032490"></path><path id="Path_12536" data-name="Path 12536" d="M192.912,112.5a6.24,6.24,0,0,1-2.644-2.475,7.435,7.435,0,0,1-.942-3.811,7.641,7.641,0,0,1,.914-3.8,6.2,6.2,0,0,1,2.63-2.517,8.716,8.716,0,0,1,4.051-.886,7,7,0,0,1,3.094.619,7.425,7.425,0,0,1,2.307,1.8l.028-8.212a1.429,1.429,0,0,1,.422-1.1,1.887,1.887,0,0,1,2.306,0,1.427,1.427,0,0,1,.422,1.1v18.65a1.424,1.424,0,0,1-.422,1.1,1.621,1.621,0,0,1-1.153.394,1.6,1.6,0,0,1-1.139-.408,1.412,1.412,0,0,1-.436-1.083v-.983a6.6,6.6,0,0,1-5.514,2.475,8.6,8.6,0,0,1-3.924-.858M201,109.592a4.386,4.386,0,0,0,1.35-3.4,4.316,4.316,0,0,0-1.393-3.4,5.318,5.318,0,0,0-3.671-1.238,4.783,4.783,0,0,0-3.516,1.252,4.593,4.593,0,0,0-1.267,3.418,4.475,4.475,0,0,0,1.266,3.418,4.918,4.918,0,0,0,3.516,1.2A5.286,5.286,0,0,0,201,109.594" transform="translate(-139.006 -67.352)" fill="#032490"></path><path id="Path_12537" data-name="Path 12537" d="M273.266,110.133a5.512,5.512,0,0,1-.8-1.014.335.335,0,0,0-.561-.027,3.62,3.62,0,0,1-.437.515h0a4.822,4.822,0,0,1-3.516,1.21,5.331,5.331,0,0,1-3.741-1.238,4.911,4.911,0,0,1,.028-6.793,5.314,5.314,0,0,1,3.713-1.252,4.784,4.784,0,0,1,3.488,1.238,3.854,3.854,0,0,1,.386.44.4.4,0,0,0,.662-.017,5.49,5.49,0,0,1,.776-.978h0l.682-.683a.4.4,0,0,0,0-.571l-.049-.048a8.459,8.459,0,0,0-8.537-1.295,7.247,7.247,0,0,0-2.475,1.8l-.028-8.212a1.427,1.427,0,0,0-.422-1.1,1.624,1.624,0,0,0-1.153-.394,1.571,1.571,0,0,0-1.139.392,1.455,1.455,0,0,0-.408,1.1v18.65a1.454,1.454,0,0,0,.408,1.1h0a1.573,1.573,0,0,0,1.139.394,1.59,1.59,0,0,0,1.153-.408,1.436,1.436,0,0,0,.422-1.083v-.983a6.826,6.826,0,0,0,5.513,2.476,7.689,7.689,0,0,0,5.541-1.885q.053-.051.1-.1a.338.338,0,0,0,0-.476Z" transform="translate(-190.705 -67.34)" fill="#032490"></path><path id="Path_12538" data-name="Path 12538" d="M343.594,145.738a2.143,2.143,0,1,1-2.143,2.143,2.144,2.144,0,0,1,2.143-2.143" transform="translate(-250.701 -107.004)" fill="#2349c3"></path><path id="Path_12539" data-name="Path 12539" d="M343.594,167.348a2.143,2.143,0,1,1-2.143,2.143,2.144,2.144,0,0,1,2.143-2.143" transform="translate(-250.701 -122.871)" fill="#2349c3"></path><path id="Path_12540" data-name="Path 12540" d="M366.335,145.738a2.143,2.143,0,1,1-2.143,2.143,2.144,2.144,0,0,1,2.143-2.143" transform="translate(-267.398 -107.004)" fill="#2349c3"></path><path id="Path_12541" data-name="Path 12541" d="M366.335,124.128a2.143,2.143,0,1,1-2.143,2.143,2.144,2.144,0,0,1,2.143-2.143" transform="translate(-267.398 -91.138)" fill="#2349c3"></path><path id="Path_12542" data-name="Path 12542" d="M366.335,167.348a2.143,2.143,0,1,1-2.143,2.143,2.144,2.144,0,0,1,2.143-2.143" transform="translate(-267.398 -122.871)" fill="#2349c3"></path><path id="Path_12543" data-name="Path 12543" d="M366.335,187.949a2.143,2.143,0,1,1-2.143,2.143,2.144,2.144,0,0,1,2.143-2.143" transform="translate(-267.398 -137.997)" fill="#2349c3"></path><path id="Path_12544" data-name="Path 12544" d="M390.394,145.738a2.143,2.143,0,1,1-2.143,2.143,2.144,2.144,0,0,1,2.143-2.143" transform="translate(-285.063 -107.004)" fill="#2349c3"></path><path id="Path_12545" data-name="Path 12545" d="M390.394,124.128a2.143,2.143,0,1,1-2.143,2.143,2.144,2.144,0,0,1,2.143-2.143" transform="translate(-285.063 -91.138)" fill="#2349c3"></path><path id="Path_12546" data-name="Path 12546" d="M390.394,102.707a2.143,2.143,0,1,1-2.143,2.143,2.144,2.144,0,0,1,2.143-2.143" transform="translate(-285.063 -75.41)" fill="#2349c3"></path><path id="Path_12547" data-name="Path 12547" d="M390.394,167.348a2.143,2.143,0,1,1-2.143,2.143,2.144,2.144,0,0,1,2.143-2.143" transform="translate(-285.063 -122.871)" fill="#2349c3"></path><path id="Path_12548" data-name="Path 12548" d="M329.5,118.41a5.419,5.419,0,0,1-3.843-1.589l-10.286-10.286a5.442,5.442,0,0,1,0-7.687l10.286-10.285a5.436,5.436,0,0,1,7.686,0,1.329,1.329,0,0,1-1.879,1.88,2.777,2.777,0,0,0-3.928,0l-10.286,10.285a2.781,2.781,0,0,0,0,3.928l10.286,10.286a2.781,2.781,0,0,0,3.928,0l10.286-10.286a2.781,2.781,0,0,0,0-3.928L338.8,97.786a1.329,1.329,0,0,1,1.879-1.879l2.942,2.941a5.442,5.442,0,0,1,0,7.687L333.34,116.821a5.417,5.417,0,0,1-3.843,1.589" transform="translate(-230.384 -63.856)" fill="#032490"></path><path id="Path_12549" data-name="Path 12549" d="M317.841,21.238a1.427,1.427,0,0,1-.422-1.1V1.491a1.43,1.43,0,0,1,.422-1.1,1.886,1.886,0,0,1,2.307,0,1.427,1.427,0,0,1,.422,1.1V9.874a6.645,6.645,0,0,1,5.485-2.588,5.489,5.489,0,0,1,4.205,1.632,6.317,6.317,0,0,1,1.533,4.5v6.723a1.4,1.4,0,0,1-.436,1.1,1.674,1.674,0,0,1-1.167.394,1.572,1.572,0,0,1-1.139-.394,1.453,1.453,0,0,1-.408-1.1V13.419a3.839,3.839,0,0,0-.844-2.672,3.068,3.068,0,0,0-2.392-.928,4.7,4.7,0,0,0-3.544,1.336,4.977,4.977,0,0,0-1.294,3.615v5.373a1.412,1.412,0,0,1-.436,1.083,1.6,1.6,0,0,1-1.139.408,1.623,1.623,0,0,1-1.153-.394" transform="translate(-233.055)" fill="#2349c3"></path><path id="Path_12550" data-name="Path 12550" d="M449.085,132.129a1.437,1.437,0,0,1-1.35,1.35,1.658,1.658,0,0,1-1.21-.591l-4.332-4.7-4.332,4.7a1.694,1.694,0,0,1-1.21.563,1.333,1.333,0,0,1-1.35-1.314v-.008a1.3,1.3,0,0,1,.394-.957l4.613-5.007-4.276-4.641a1.591,1.591,0,0,1-.45-1.069,1.252,1.252,0,0,1,.478-1.012,1.307,1.307,0,0,1,.816-.309,1.761,1.761,0,0,1,1.322.647l3.994,4.332,3.994-4.332a1.712,1.712,0,0,1,1.266-.647,1.344,1.344,0,0,1,.844.309,1.278,1.278,0,0,1,.505,1.012,1.594,1.594,0,0,1-.45,1.069l-4.275,4.64,4.613,5.007a1.435,1.435,0,0,1,.394.957" transform="translate(-319.609 -87.47)" fill="#032490"></path></g></svg>